<svg width="64" height="64" viewBox="0 0 64 64" fill="none" xmlns="http://www.w3.org/2000/svg">
  <defs>
    <linearGradient id="shieldGradient" x1="6" y1="12" x2="58" y2="52" gradientUnits="userSpaceOnUse">
      <stop stop-color="#3B82F6"/>
      <stop offset="0.5" stop-color="#1E40AF"/>
      <stop offset="1" stop-color="#7C3AED"/>
    </linearGradient>
    <linearGradient id="waveGradient" x1="38" y1="24" x2="56" y2="40" gradientUnits="userSpaceOnUse">
      <stop stop-color="#06B6D4" stop-opacity="0.8"/>
      <stop offset="0.5" stop-color="#3B82F6" stop-opacity="0.6"/>
      <stop offset="1" stop-color="#8B5CF6" stop-opacity="0.4"/>
    </linearGradient>
    <filter id="glow">
      <feGaussianBlur stdDeviation="1.5" result="coloredBlur"/>
      <feMerge>
        <feMergeNode in="coloredBlur"/>
        <feMergeNode in="SourceGraphic"/>
      </feMerge>
    </filter>
  </defs>

  <circle cx="32" cy="32" r="30" fill="rgba(59,130,246,0.13)" stroke="rgba(59,130,246,0.3)" stroke-width="1"/>

  <path d="M19 24 C19 19, 25 14, 32 14 C39 14, 45 19, 45 24 L45 39 C45 49, 35 57, 32 57 C29 57, 19 49, 19 39 Z"
        fill="url(#shieldGradient)" filter="url(#glow)" stroke="rgba(255,255,255,0.18)" stroke-width="1"/>

  <rect x="29" y="29" width="6" height="14" rx="3" fill="white" opacity="0.92"/>
  <rect x="27.5" y="44" width="9" height="3" rx="1.5" fill="white" opacity="0.7"/>
  <line x1="32" y1="47" x2="32" y2="51" stroke="white" stroke-width="2" opacity="0.7"/>
  <!-- Waves -->
  <path d="M48 30 Q52 32, 48 36" stroke="url(#waveGradient)" stroke-width="2" fill="none" opacity="0.8"/>
  <path d="M51 27 Q56 32, 51 37" stroke="url(#waveGradient)" stroke-width="2" fill="none" opacity="0.6"/>
  <path d="M54 24 Q60 32, 54 40" stroke="url(#waveGradient)" stroke-width="2" fill="none" opacity="0.4"/>
</svg>